<?xml version="1.0" encoding="UTF-8"?>
<svg version="1.1" xmlns="http://www.w3.org/2000/svg" width="1024" height="1024">
<path d="M0 0 C337.92 0 675.84 0 1024 0 C1024 337.92 1024 675.84 1024 1024 C686.08 1024 348.16 1024 0 1024 C0 686.08 0 348.16 0 0 Z " fill="#E9E3DE" transform="translate(0,0)"/>
<path d="M0 0 C1.18770996 0.00491455 2.37541992 0.0098291 3.59912109 0.01489258 C12.34921622 0.13161638 20.23723029 0.92665332 28.6875 3.3125 C29.3695752 3.49474121 30.05165039 3.67698242 30.75439453 3.86474609 C38.04897625 5.81420229 45.02494158 7.90948055 51.875 11.125 C58.28310405 13.93463898 64.7850396 14.37989078 71.6875 13.3125 C72.3578125 12.8071875 73.028125 12.301875 73.71875 11.78125 C75.6875 10.3125 75.6875 10.3125 81.6875 10.3125 C81.6875 37.3725 81.6875 64.4325 81.6875 92.3125 C78.3875 92.3125 75.0875 92.3125 71.6875 92.3125 C71.40777344 90.80042969 71.12804687 89.28835938 70.83984375 87.73046875 C66.15861073 63.35419283 59.39530646 38.76164151 37.91015625 23.68359375 C30.25878147 18.96367715 22.39876586 15.50609774 13.6875 13.3125 C13.08091553 13.14121582 12.47433105 12.96993164 11.84936523 12.79345703 C-2.6862568 9.55967099 -18.4711582 12.12074632 -31.1875 19.5 C-39.92011423 25.49097953 -45.73834389 34.01587557 -48.3125 44.3125 C-49.79137423 56.81338697 -48.50470983 67.7422018 -41.078125 78.125 C-27.01188574 95.55219909 -2.45974323 100.88791719 18.125 106.75 C39.53692163 112.89295914 61.94626189 120.01500169 78.6875 135.3125 C79.37972656 135.91320312 80.07195312 136.51390625 80.78515625 137.1328125 C90.95483369 146.49910501 100.0903206 161.97412078 100.83276367 176.07055664 C100.85750591 179.50547134 100.87316211 182.93998933 100.875 186.375 C100.88724609 187.55255859 100.89949219 188.73011719 100.91210938 189.94335938 C100.94983478 212.66662891 93.41938673 232.29548877 77.4453125 248.6015625 C58.36542349 267.35714745 32.41099304 274.7071429 6.13476562 274.62817383 C3.95391278 274.62502371 1.77443557 274.64853414 -0.40625 274.67382812 C-14.01660241 274.73642319 -26.74698124 272.42970477 -39.75 268.375 C-40.55630859 268.13587891 -41.36261719 267.89675781 -42.19335938 267.65039062 C-46.27528999 266.40577944 -50.09864718 264.98812117 -53.953125 263.15234375 C-57.92368637 261.33490972 -61.21310425 260.77323953 -65.625 260.8125 C-66.79675781 260.8021875 -67.96851563 260.791875 -69.17578125 260.78125 C-72.40754794 261.00472467 -72.40754794 261.00472467 -74.23046875 263.34375 C-76.3125 265.3125 -76.3125 265.3125 -84.3125 265.3125 C-84.6425 258.7125 -84.9725 252.1125 -85.3125 245.3125 C-87.2925 246.6325 -89.2725 247.9525 -91.3125 249.3125 C-111.95226402 262.73018398 -135.45829074 272.65218626 -160.3125 273.3125 C-161.09189941 273.34359863 -161.87129883 273.37469727 -162.67431641 273.40673828 C-198.48910411 274.74768706 -230.56492101 262.97632318 -256.94726562 238.67163086 C-273.45542408 222.88204369 -283.15966806 202.43158872 -289.5625 180.8125 C-289.80895264 179.99507324 -290.05540527 179.17764648 -290.30932617 178.33544922 C-294.01513167 165.26201302 -294.75409712 151.94104491 -294.75 138.4375 C-294.7510675 137.68125336 -294.75213501 136.92500671 -294.75323486 136.14584351 C-294.71333583 116.40903646 -291.50379742 97.3741448 -283.3125 79.3125 C-282.87381592 78.33410156 -282.87381592 78.33410156 -282.42626953 77.3359375 C-267.65513292 44.93170768 -242.51115828 20.50692507 -209.3125 7.3125 C-187.15518723 -0.5799465 -157.74721012 -2.96971363 -135.3125 5.3125 C-134.27528809 5.6935791 -133.23807617 6.0746582 -132.16943359 6.46728516 C-125.36796421 8.9968513 -118.61088494 11.62407867 -111.88354492 14.34448242 C-106.45036708 16.39011438 -101.09774582 17.19963394 -95.3125 16.3125 C-92.56208334 13.89583229 -92.56208334 13.89583229 -90.3125 11.3125 C-88.3325 11.3125 -86.3525 11.3125 -84.3125 11.3125 C-83.9825 24.5125 -83.6525 37.7125 -83.3125 51.3125 C-79.8475 44.3825 -79.8475 44.3825 -76.3125 37.3125 C-62.80078644 18.1504335 -42.89537395 5.5037312 -19.77734375 1.2265625 C-13.16935458 0.17121878 -6.68253744 -0.03292125 0 0 Z " fill="#302A2C" transform="translate(609.3125,362.6875)"/>
<path d="M0 0 C0.93779297 -0.00322266 1.87558594 -0.00644531 2.84179688 -0.00976562 C20.21447031 0.12303452 34.74724436 7.24815605 47.3125 19.0625 C65.17357987 38.08680146 74.73478044 63.788891 78.0625 89.3125 C80.7025 89.3125 83.3425 89.3125 86.0625 89.3125 C86.48660156 90.49585938 86.91070313 91.67921875 87.34765625 92.8984375 C90.64441092 101.87145928 93.91111582 109.86682005 100.0625 117.3125 C100.57039062 117.99183594 101.07828125 118.67117188 101.6015625 119.37109375 C113.68143473 134.63457762 133.77720617 141.57764644 151.625 147.5 C153.13766993 148.011483 154.6500411 148.52385045 156.16210938 149.03710938 C163.79934576 151.61842096 171.46536882 154.0699993 179.1784668 156.41625977 C200.02098668 162.89326734 220.44560705 171.04385032 231.15234375 191.3828125 C235.23327553 201.27484069 234.10908329 213.87090575 230.31640625 223.63671875 C224.50345902 236.04129461 215.71483004 243.36658917 203.0625 248.3125 C202.27359375 248.66570312 201.4846875 249.01890625 200.671875 249.3828125 C188.4716092 253.72961379 168.5031469 253.60809261 156.61328125 248.5703125 C155.77152344 248.15523437 154.92976562 247.74015625 154.0625 247.3125 C153.06605469 246.87679687 152.06960938 246.44109375 151.04296875 245.9921875 C126.65113079 234.76273757 111.31516067 212.29639938 101.78125 188.0546875 C99.52980935 181.76673541 98.45451227 175.97670865 98.0625 169.3125 C94.4325 169.3125 90.8025 169.3125 87.0625 169.3125 C87.11486816 170.82078369 87.16723633 172.32906738 87.22119141 173.88305664 C87.40257196 179.49394083 87.51712443 185.10456792 87.61181641 190.7175293 C87.66202198 193.14375416 87.73020447 195.56967769 87.81689453 197.99487305 C87.93861404 201.48822288 87.99498984 204.97756879 88.0390625 208.47265625 C88.09067535 209.55209 88.14228821 210.63152374 88.19546509 211.7436676 C88.19884715 216.31330457 88.19355251 219.14695922 84.91871643 222.52165222 C82.36846412 224.33651637 79.83600288 225.86589656 77.0625 227.3125 C76.29764282 227.73082596 75.53278564 228.14915192 74.74475098 228.58015442 C72.77547712 229.63149044 70.78244108 230.57717629 68.75 231.5 C67.66368286 232.00188843 67.66368286 232.00188843 66.55541992 232.51391602 C48.24304014 240.77875973 25.91167857 244.43313649 6.52905273 237.57470703 C4.68959037 236.86382469 2.87550478 236.08837962 1.0625 235.3125 C0.45229004 235.05549316 -0.15791992 234.79848633 -0.78662109 234.53369141 C-23.86441318 224.61188531 -39.00513159 204.98577918 -48.26342773 182.26269531 C-65.09585855 139.64613791 -70.77134236 84.2208281 -52.99414062 41.02001953 C-49.36349963 32.7278819 -45.05390531 25.04184998 -38.9375 18.3125 C-38.26074219 17.54421875 -37.58398438 16.7759375 -36.88671875 15.984375 C-31.59145257 10.30348553 -26.01396296 6.48968745 -18.9375 3.3125 C-18.07813843 2.90753296 -18.07813843 2.90753296 -17.20141602 2.49438477 C-11.46350808 0.02485923 -6.18538308 -0.1058416 0 0 Z " fill="#E9E3DE" transform="translate(437.9375,373.6875)"/>
<path d="M0 0 C2.37570543 -0.0816082 4.74855841 -0.14077222 7.125 -0.1875 C7.79015625 -0.21263672 8.4553125 -0.23777344 9.140625 -0.26367188 C13.87014242 -0.3332236 17.01285346 0.46218714 21 3 C23.66195958 6.99293937 23.72919332 10.30263837 23 15 C21 17.5625 21 17.5625 19 19 C20.15173355 21.46800047 21.04783565 23.04783565 23 25 C23 26.32 23 27.64 23 29 C20.9375 29.4375 20.9375 29.4375 18 29 C16.3203125 27.4765625 16.3203125 27.4765625 14.5625 25.5625 C12.05681852 22.8370219 11.26376237 22.07193519 7.5625 21.0625 C6.2940625 21.0315625 6.2940625 21.0315625 5 21 C5.020625 22.134375 5.04125 23.26875 5.0625 24.4375 C5 28 5 28 4 29 C2.33382885 29.04063832 0.66611905 29.042721 -1 29 C-1.02891546 24.54168018 -1.04676981 20.08338431 -1.0625 15.625 C-1.07087891 14.35398437 -1.07925781 13.08296875 -1.08789062 11.7734375 C-1.09111328 10.56171875 -1.09433594 9.35 -1.09765625 8.1015625 C-1.10289307 6.98088379 -1.10812988 5.86020508 -1.11352539 4.70556641 C-1 2 -1 2 0 0 Z " fill="#393436" transform="translate(596,658)"/>
<path d="M0 0 C3.49006905 0.30531457 5.00948088 1.71505179 7.234375 4.30859375 C8.09482422 5.30536133 8.09482422 5.30536133 8.97265625 6.32226562 C9.55917969 7.02029297 10.14570313 7.71832031 10.75 8.4375 C11.35199219 9.13166016 11.95398438 9.82582031 12.57421875 10.54101562 C17 15.72449865 17 15.72449865 17 18 C17.66 18 18.32 18 19 18 C19 12.39 19 6.78 19 1 C20.32 0.67 21.64 0.34 23 0 C25 2 25 2 25.22705078 4.61376953 C25.21657715 5.69255371 25.20610352 6.77133789 25.1953125 7.8828125 C25.18886719 9.04941406 25.18242187 10.21601562 25.17578125 11.41796875 C25.15902344 12.64128906 25.14226562 13.86460937 25.125 15.125 C25.11597656 16.35605469 25.10695313 17.58710937 25.09765625 18.85546875 C25.07402548 21.90383815 25.04108054 24.95182382 25 28 C22.61083984 28.57202148 22.61083984 28.57202148 20 29 C18.2265625 27.84765625 18.2265625 27.84765625 16.625 26.0625 C16.0371875 25.42183594 15.449375 24.78117188 14.84375 24.12109375 C14.2353125 23.42113281 13.626875 22.72117187 13 22 C12.3503125 21.26910156 11.700625 20.53820312 11.03125 19.78515625 C9.80694741 18.39778057 8.59011051 17.00376064 7.3828125 15.6015625 C6.61429517 14.71147181 5.83152881 13.83152881 5 13 C4.67 17.95 4.34 22.9 4 28 C2.35 28.33 0.7 28.66 -1 29 C-3.64540597 26.35459403 -2.18562153 18.62595815 -2.1875 15.0625 C-2.20586914 13.23428711 -2.20586914 13.23428711 -2.22460938 11.36914062 C-2.22654297 10.20705078 -2.22847656 9.04496094 -2.23046875 7.84765625 C-2.23457764 6.77523682 -2.23868652 5.70281738 -2.24291992 4.59790039 C-2 2 -2 2 0 0 Z " fill="#3F383B" transform="translate(427,658)"/>
<path d="M0 0 C0.83265381 0.00523682 1.66530762 0.01047363 2.52319336 0.01586914 C3.42231445 0.0190918 4.32143555 0.02231445 5.24780273 0.02563477 C6.66609375 0.03820312 6.66609375 0.03820312 8.11303711 0.05102539 C9.06243164 0.05553711 10.01182617 0.06004883 10.98999023 0.06469727 C13.34356776 0.07652429 15.69702188 0.09300514 18.05053711 0.11352539 C18.61303711 2.05102539 18.61303711 2.05102539 19.05053711 4.11352539 C18.05053711 5.11352539 18.05053711 5.11352539 14.45288086 5.21118164 C12.96456844 5.20450759 11.47627279 5.19254722 9.98803711 5.17602539 C9.22942383 5.17151367 8.47081055 5.16700195 7.68920898 5.16235352 C5.8096184 5.15053219 3.93006812 5.13259617 2.05053711 5.11352539 C2.05053711 7.42352539 2.05053711 9.73352539 2.05053711 12.11352539 C6.34053711 12.11352539 10.63053711 12.11352539 15.05053711 12.11352539 C15.38053711 13.43352539 15.71053711 14.75352539 16.05053711 16.11352539 C14.23937755 17.92468495 11.43775484 17.49551987 8.98803711 17.67602539 C7.33094727 17.80170898 7.33094727 17.80170898 5.64038086 17.92993164 C4.78573242 17.99051758 3.93108398 18.05110352 3.05053711 18.11352539 C2.72053711 20.09352539 2.39053711 22.07352539 2.05053711 24.11352539 C7.33053711 24.11352539 12.61053711 24.11352539 18.05053711 24.11352539 C18.38053711 25.43352539 18.71053711 26.75352539 19.05053711 28.11352539 C17.46116155 29.70290095 15.81153865 29.24333682 13.61303711 29.24633789 C12.27112305 29.24827148 12.27112305 29.24827148 10.90209961 29.25024414 C9.96108398 29.24637695 9.02006836 29.24250977 8.05053711 29.23852539 C6.63901367 29.24432617 6.63901367 29.24432617 5.19897461 29.25024414 C4.30436523 29.24895508 3.40975586 29.24766602 2.48803711 29.24633789 C1.66174805 29.24520996 0.83545898 29.24408203 -0.01586914 29.24291992 C-1.94946289 29.11352539 -1.94946289 29.11352539 -2.94946289 28.11352539 C-3.04929347 26.12595511 -3.08027042 24.1348502 -3.08227539 22.14477539 C-3.08356445 20.9343457 -3.08485352 19.72391602 -3.08618164 18.47680664 C-3.08231445 17.20192383 -3.07844727 15.92704102 -3.07446289 14.61352539 C-3.07833008 13.33864258 -3.08219727 12.06375977 -3.08618164 10.75024414 C-3.08489258 9.53981445 -3.08360352 8.32938477 -3.08227539 7.08227539 C-3.08114746 5.96272461 -3.08001953 4.84317383 -3.07885742 3.68969727 C-2.90202164 0.16899688 -2.90202164 0.16899688 0 0 Z " fill="#373134" transform="translate(629.949462890625,657.886474609375)"/>
<path d="M0 0 C6.27 0 12.54 0 19 0 C19.33 1.65 19.66 3.3 20 5 C14.72 5 9.44 5 4 5 C4 7.31 4 9.62 4 12 C8.62 12 13.24 12 18 12 C18 13.65 18 15.3 18 17 C13.38 17 8.76 17 4 17 C4 19.31 4 21.62 4 24 C8.95 24 13.9 24 19 24 C19.66 25.32 20.32 26.64 21 28 C19.41062444 29.58937556 17.76100154 29.12981143 15.5625 29.1328125 C14.22058594 29.13474609 14.22058594 29.13474609 12.8515625 29.13671875 C11.91054688 29.13285156 10.96953125 29.12898437 10 29.125 C8.58847656 29.13080078 8.58847656 29.13080078 7.1484375 29.13671875 C6.25382812 29.13542969 5.35921875 29.13414062 4.4375 29.1328125 C3.61121094 29.13168457 2.78492188 29.13055664 1.93359375 29.12939453 C0 29 0 29 -1 28 C-1.09974389 26.09715013 -1.1308063 24.19061747 -1.1328125 22.28515625 C-1.13410156 21.12435547 -1.13539063 19.96355469 -1.13671875 18.76757812 C-1.13091797 16.93356445 -1.13091797 16.93356445 -1.125 15.0625 C-1.13080078 13.23428711 -1.13080078 13.23428711 -1.13671875 11.36914062 C-1.13542969 10.20705078 -1.13414062 9.04496094 -1.1328125 7.84765625 C-1.13168457 6.77523682 -1.13055664 5.70281738 -1.12939453 4.59790039 C-1 2 -1 2 0 0 Z " fill="#373133" transform="translate(461,658)"/>
<path d="M0 0 C1.67542976 0.28604898 3.34385343 0.61781233 5 1 C5.01981934 1.56509277 5.03963867 2.13018555 5.06005859 2.71240234 C5.15518236 5.26707997 5.26491058 7.82092541 5.375 10.375 C5.4059375 11.26445313 5.436875 12.15390625 5.46875 13.0703125 C5.50742187 13.92109375 5.54609375 14.771875 5.5859375 15.6484375 C5.6173584 16.43395996 5.6487793 17.21948242 5.68115234 18.02880859 C5.8399465 20.23002939 5.8399465 20.23002939 8 22 C12.33643601 22.31537716 14.32653229 22.44897847 18 20 C18.4900409 17.99276461 18.4900409 17.99276461 18.4765625 15.68359375 C18.52296875 14.41418945 18.52296875 14.41418945 18.5703125 13.11914062 C18.58835937 12.23419922 18.60640625 11.34925781 18.625 10.4375 C18.67580258 8.68608092 18.73028945 6.93476348 18.7890625 5.18359375 C18.80662598 4.40556396 18.82418945 3.62753418 18.84228516 2.82592773 C19 1 19 1 20 0 C21.66617115 -0.04063832 23.33388095 -0.042721 25 0 C25.10867663 3.02181414 25.18762754 6.03966327 25.25 9.0625 C25.30027344 10.33383789 25.30027344 10.33383789 25.3515625 11.63085938 C25.44428037 17.63434137 24.6124635 21.14338386 21 26 C16.7256951 29.15546845 11.05973559 28.74319558 6 28 C2.5301668 25.45073479 0.66790917 22.91427605 -1 19 C-1.24291992 16.90942383 -1.24291992 16.90942383 -1.23046875 14.70703125 C-1.22853516 13.91232422 -1.22660156 13.11761719 -1.22460938 12.29882812 C-1.21236328 11.47833984 -1.20011719 10.65785156 -1.1875 9.8125 C-1.18685547 8.98041016 -1.18621094 8.14832031 -1.18554688 7.29101562 C-1.14043257 1.14043257 -1.14043257 1.14043257 0 0 Z " fill="#3D3739" transform="translate(530,659)"/>
<path d="M0 0 C0.639375 0.495 1.27875 0.99 1.9375 1.5 C1.6075 2.82 1.2775 4.14 0.9375 5.5 C-3.3525 5.17 -7.6425 4.84 -12.0625 4.5 C-12.3925 5.82 -12.7225 7.14 -13.0625 8.5 C-12.47082031 8.68175781 -11.87914062 8.86351562 -11.26953125 9.05078125 C-5.86400012 10.77032215 -1.15323951 12.40926049 2.9375 16.5 C3.4375 19.3125 3.4375 19.3125 2.9375 22.5 C0.82078651 25.2819663 0.04171798 26.20055991 -3.0625 27.5 C-8.31714514 28.19020122 -13.85445603 28.90969583 -18.4609375 25.96875 C-18.98945313 25.4840625 -19.51796875 24.999375 -20.0625 24.5 C-19.5675 23.015 -19.5675 23.015 -19.0625 21.5 C-14.1125 21.5 -9.1625 21.5 -4.0625 21.5 C-4.0625 20.51 -4.0625 19.52 -4.0625 18.5 C-4.88234375 18.26925781 -5.7021875 18.03851562 -6.546875 17.80078125 C-15.31196695 15.14818763 -15.31196695 15.14818763 -18.8125 12.125 C-20.34759061 8.90130971 -20.66277206 7.02659832 -20.0625 3.5 C-15.4234945 -2.63011441 -6.65572025 -3.25994461 0 0 Z " fill="#3B3539" transform="translate(520.0625,659.5)"/>
<path d="M0 0 C2.64772306 1.09106883 4.62886788 2.35051679 7 4 C6.67 5.32 6.34 6.64 6 8 C0.25 7.125 0.25 7.125 -2 6 C-5.61726636 5.59808152 -7.59782296 5.79891148 -10.875 7.4375 C-13.60449748 10.72895285 -13.45532329 12.73051122 -13.2734375 16.87890625 C-13.04533081 19.18457109 -13.04533081 19.18457109 -12 22 C-7.62341722 23.45886093 -2.97251787 23.93146677 1.25 21.9375 C2.11625 21.4734375 2.11625 21.4734375 3 21 C5.25 21.375 5.25 21.375 7 22 C6.875 23.8125 6.875 23.8125 6 26 C1.55920451 29.2721651 -2.94653779 29.63037363 -8.3046875 29.484375 C-12.72722263 28.68960057 -15.25068709 26.44898835 -18 23 C-20.42176269 18.99882686 -20.72027663 14.58276005 -20 10 C-15.70814356 1.41628713 -9.23305187 -1.51218487 0 0 Z " fill="#393335" transform="translate(581,658)"/>
<path d="M0 0 C2.46325185 1.07913891 3.9424654 2.22051061 6 4 C5.67 5.32 5.34 6.64 5 8 C4.360625 7.855625 3.72125 7.71125 3.0625 7.5625 C2.051875 7.376875 1.04125 7.19125 0 7 C-1.06927734 6.76990234 -1.06927734 6.76990234 -2.16015625 6.53515625 C-6.42859946 5.78693165 -8.3015339 5.58092034 -12.125 7.875 C-14.39973171 11.66621951 -14.41313776 13.70924277 -13.6328125 17.97265625 C-13.08524953 20.12952106 -13.08524953 20.12952106 -11.4375 22.0625 C-5.74621101 24.2514573 -0.49880804 23.19952322 5 21 C5.66 22.32 6.32 23.64 7 25 C1.35772809 29.47490531 -3.97612597 29.72348917 -11 29 C-15.58507257 26.78934001 -17.73474731 24.49189312 -20 20 C-20.75199291 15.34391058 -21.10402184 10.29128342 -19.015625 5.95703125 C-13.88616194 -0.45479758 -7.72538188 -0.9587054 0 0 Z " fill="#393234" transform="translate(398,658)"/>
<path d="M0 0 C1.32 0.66 2.64 1.32 4 2 C4 10.58 4 19.16 4 28 C2.35 28.33 0.7 28.66 -1 29 C-3.64540597 26.35459403 -2.18562153 18.62595815 -2.1875 15.0625 C-2.20586914 13.23428711 -2.20586914 13.23428711 -2.22460938 11.36914062 C-2.22654297 10.20705078 -2.22847656 9.04496094 -2.23046875 7.84765625 C-2.23457764 6.77523682 -2.23868652 5.70281738 -2.24291992 4.59790039 C-2 2 -2 2 0 0 Z " fill="#3D3639" transform="translate(413,658)"/>
<path d="M0 0 C0.79148437 -0.02578125 1.58296875 -0.0515625 2.3984375 -0.078125 C4.625 0.25 4.625 0.25 6.390625 1.57421875 C8.28848553 4.15074459 8.02010285 6.15502764 7.625 9.25 C4.31129 11.45914 3.2803979 11.47481553 -0.5625 11.375 C-1.46355469 11.35695313 -2.36460937 11.33890625 -3.29296875 11.3203125 C-3.98003906 11.29710937 -4.66710937 11.27390625 -5.375 11.25 C-5.40188151 9.60425434 -5.42134123 7.95838587 -5.4375 6.3125 C-5.44910156 5.39597656 -5.46070313 4.47945312 -5.47265625 3.53515625 C-5.3027726 -0.44012112 -3.5409862 0.06875701 0 0 Z " fill="#E5DCD8" transform="translate(605.375,662.75)"/>
<path d="M0 0 C0.33 0 0.66 0 1 0 C1 10.89 1 21.78 1 33 C1.99 33.33 2.98 33.66 4 34 C3.01 36.31 2.02 38.62 1 41 C0.67 41 0.34 41 0 41 C0 27.47 0 13.94 0 0 Z " fill="#E2DBD6" transform="translate(525,375)"/>
<path d="M0 0 C0.79148437 -0.02578125 1.58296875 -0.0515625 2.3984375 -0.078125 C4.625 0.25 4.625 0.25 6.43359375 1.62890625 C7.625 3.25 7.625 3.25 7.3125 5.4375 C6.9721875 6.3346875 6.9721875 6.3346875 6.625 7.25 C6.46 6.610625 6.295 5.97125 6.125 5.3125 C4.843214 3.08880759 4.843214 3.08880759 2.7109375 2.76171875 C0.68924845 2.5224022 -1.34341939 2.38106972 -3.375 2.25 C-3.375 5.22 -3.375 8.19 -3.375 11.25 C-4.035 11.25 -4.695 11.25 -5.375 11.25 C-5.40188151 9.60425434 -5.42134123 7.95838587 -5.4375 6.3125 C-5.44910156 5.39597656 -5.46070313 4.47945312 -5.47265625 3.53515625 C-5.3027726 -0.44012112 -3.5409862 0.06875701 0 0 Z " fill="#CFC8C5" transform="translate(605.375,662.75)"/>
<path d="M0 0 C5.28 0 10.56 0 16 0 C15.67 0.66 15.34 1.32 15 2 C10.71 2 6.42 2 2 2 C2.33 3.65 2.66 5.3 3 7 C2.01 7 1.02 7 0 7 C0 4.69 0 2.38 0 0 Z " fill="#D3CDCA" transform="translate(632,663)"/>
<path d="M0 0 C1.51400391 0.01740234 1.51400391 0.01740234 3.05859375 0.03515625 C4.07050781 0.04417969 5.08242188 0.05320312 6.125 0.0625 C7.29869141 0.07990234 7.29869141 0.07990234 8.49609375 0.09765625 C8.49609375 0.75765625 8.49609375 1.41765625 8.49609375 2.09765625 C5.19609375 2.09765625 1.89609375 2.09765625 -1.50390625 2.09765625 C-1.83390625 3.74765625 -2.16390625 5.39765625 -2.50390625 7.09765625 C-2.83390625 7.09765625 -3.16390625 7.09765625 -3.50390625 7.09765625 C-3.54644981 5.09810879 -3.54471408 3.09723989 -3.50390625 1.09765625 C-2.50390625 0.09765625 -2.50390625 0.09765625 0 0 Z " fill="#D3CDCA" transform="translate(635.50390625,674.90234375)"/>
<path d="M0 0 C1.98 0.99 1.98 0.99 4 2 C3.01 4.31 2.02 6.62 1 9 C0.67 9 0.34 9 0 9 C0 6.03 0 3.06 0 0 Z " fill="#DDD3D0" transform="translate(525,407)"/>
</svg>
